<?xml version="1.0" standalone="no"?>
<!DOCTYPE svg PUBLIC "-//W3C//DTD SVG 1.0//EN" "http://www.w3.org/TR/2001/REC-SVG-20010904/DTD/svg10.dtd"> 
<svg xmlns="http://www.w3.org/2000/svg"><defs id="SvgjsDefs1147"></defs><g id="SvgjsG1148" featurekey="root" fill="#000"></g><g id="SvgjsG1149" featurekey="symbol1" fill="#fff" transform="matrix(1.0000142780707688,0,0,1.0000142780707688,10,10)"><g><g><g><g><circle cx="16.901" cy="37.072" r="1.176"></circle></g><g><circle cx="24.205" cy="35.468" r="1.176"></circle></g><g><path d="M21.331,45.268c-2.337,0-3.799-1.546-3.869-1.622c-0.376-0.405-0.352-1.038,0.054-1.413      c0.403-0.374,1.033-0.351,1.408,0.049c0.061,0.062,1.299,1.312,3.166,0.901c1.908-0.419,2.45-2.098,2.455-2.115      c0.163-0.526,0.717-0.821,1.252-0.658c0.527,0.164,0.822,0.724,0.658,1.252c-0.035,0.114-0.904,2.809-3.936,3.475      C22.103,45.228,21.705,45.268,21.331,45.268z"></path></g><path d="M36.221,37.569c0,0-2.511-0.095-6.817-4.934c-0.267-0.86-0.657-1.662-1.142-2.395c0.268-2.231-3.029-6.502-4.942-7.002     c-2.243-0.589-6.769,0.098-8.954,1.176c-3.395,1.672-5.258,3.853-4.234,8.495c0.308,1.397,0.623,2.76,0.934,3.945     c0.031,0.195,0.057,0.392,0.1,0.587l0.13,0.593c-1.634,4.75-3.271,5.639-3.271,5.639c0.561,2.589,2.059,5.278,7.51,4.805     c1.673,1.443,3.835,2.312,6.146,2.313c0.001,0,0.001,0,0.001,0c0.679,0,1.362-0.074,2.031-0.222     c2.958-0.65,5.28-2.634,6.491-5.178C36.122,43.593,36.806,40.274,36.221,37.569z M23.154,48.031     c-0.486,0.106-0.981,0.16-1.474,0.16c-3.184,0-5.99-2.261-6.675-5.375l-1.303-5.933c-0.167-0.761-0.195-1.528-0.106-2.279     c1.039-1.099,2.816-2.431,5.433-2.338c2.839,0.1,5.348,0.326,7.242-0.298c0.358,0.607,0.638,1.269,0.794,1.981l1.304,5.932     C29.178,43.566,26.838,47.222,23.154,48.031z"></path></g><g><g><circle cx="44.358" cy="45.247" r="1.176"></circle></g><g><circle cx="51.759" cy="46.326" r="1.177"></circle></g><g><path d="M47.579,54.835c-0.259,0-0.53-0.02-0.812-0.061c-3.062-0.444-4.162-3.067-4.208-3.179      c-0.208-0.512,0.038-1.095,0.55-1.304c0.51-0.205,1.089,0.036,1.301,0.543c0.031,0.074,0.742,1.685,2.646,1.961      c1.898,0.264,3.003-1.062,3.05-1.119c0.345-0.429,0.973-0.501,1.402-0.158c0.43,0.341,0.507,0.961,0.17,1.395      C51.61,52.999,50.146,54.835,47.579,54.835z"></path></g><g><g><path d="M47.365,60.383c-0.451,0-0.907-0.032-1.367-0.1c-2.496-0.362-4.701-1.677-6.209-3.698       c-1.507-2.021-2.137-4.509-1.772-7.004l1.551-10.611c0.704-4.859,3.049-7.132,7.841-7.6c1.891-0.176,4.168,0.55,6.367,1.255       c1.019,0.327,1.981,0.637,2.847,0.837c0.443,0.105,1.717-0.37,2.558-0.864c0.51-0.301,1.159-0.219,1.578,0.201       c1.661,1.661,2.25,3.971,1.657,6.503c-0.614,2.625-2.458,5.071-4.289,5.69c-0.125,0.042-0.25,0.08-0.376,0.112l-1.051,7.2       C56.016,56.995,51.972,60.383,47.365,60.383z M41.547,43.39l-0.958,6.566c-0.264,1.808,0.192,3.61,1.285,5.074       c1.092,1.466,2.689,2.417,4.499,2.681c3.739,0.533,7.209-2.052,7.754-5.781l0.982-6.733c-1.625-0.254-3.331-0.987-5.192-1.787       c-0.422-0.182-0.853-0.366-1.293-0.551c-2.872-1.201-6.423,0.088-7.07,0.526C41.552,43.387,41.549,43.388,41.547,43.39z        M45.943,39.763c1.206,0,2.474,0.191,3.684,0.697c0.448,0.188,0.887,0.376,1.316,0.56c2.121,0.912,4.005,1.705,5.488,1.661       c0.057-0.008,0.125-0.012,0.174-0.011c0.241-0.021,0.471-0.067,0.688-0.141c0.769-0.26,2.126-1.839,2.59-3.82       c0.221-0.942,0.294-2.215-0.396-3.352c-0.942,0.427-2.332,0.896-3.453,0.638c-0.971-0.226-2.03-0.565-3.055-0.895       c-1.948-0.625-3.954-1.277-5.322-1.143c-3.116,0.304-4.919,1.252-5.519,5.387l-0.154,1.054       C43.064,40.052,44.458,39.763,45.943,39.763z"></path></g></g></g><g><g><g><path d="M38.213,25c-0.125,0-0.251-0.019-0.376-0.056c-0.688-0.208-1.077-0.933-0.87-1.62l4.05-13.434       c0.208-0.688,0.934-1.075,1.62-0.87c0.688,0.208,1.077,0.933,0.87,1.62l-4.05,13.434C39.287,24.637,38.771,25,38.213,25z"></path></g></g><g><g><path d="M43.985,28.204c-0.304,0-0.609-0.106-0.856-0.322c-0.539-0.474-0.594-1.295-0.12-1.835l3.18-3.626       c0.473-0.539,1.294-0.593,1.835-0.12c0.539,0.474,0.594,1.295,0.12,1.835l-3.18,3.626       C44.707,28.055,44.347,28.204,43.985,28.204z"></path></g></g><g><g><path d="M31.913,24.564c-0.661,0-1.227-0.502-1.292-1.174l-0.649-6.663c-0.069-0.715,0.453-1.351,1.168-1.42       c0.698-0.059,1.351,0.452,1.42,1.168l0.649,6.663c0.069,0.715-0.453,1.351-1.168,1.42       C31.998,24.562,31.956,24.564,31.913,24.564z"></path></g></g></g></g><rect fill="none" width="69.999" height="70"></rect></g></g><g id="SvgjsG1150" featurekey="text1" fill="#fff" transform="matrix(1.951934192228975,0,0,1.951934192228975,98.75076272661782,17.123211237502453)"><path d="M5.2 20.18 c-0.74 0 -1.5 -0.08 -2.26 -0.26 c-0.74 -0.18 -1.3 -0.64 -1.66 -1.4 c-0.4 -0.8 -0.64 -2.48 -0.64 -4 l0 -3.48 c0 -1.44 0.22 -2.94 0.54 -3.82 c0.32 -0.9 0.86 -1.5 1.6 -1.76 c0.76 -0.26 1.56 -0.4 2.42 -0.4 c0.84 0 1.64 0.14 2.4 0.4 s1.3 0.86 1.62 1.76 c0.12 0.36 0.22 0.86 0.28 1.5 s0.12 1.22 0.16 1.74 l-3.52 0 c0 -0.48 -0.02 -1.02 -0.02 -1.52 c-0.02 -0.86 -0.34 -1.3 -0.92 -1.3 c-0.6 0 -0.9 0.44 -0.92 1.3 c-0.08 2.34 0 4.7 0 7.02 c0 0.36 0.04 0.72 0.1 1.1 s0.34 0.56 0.82 0.56 c0.46 0 0.74 -0.18 0.8 -0.56 c0.08 -0.38 0.12 -0.74 0.12 -1.1 l0 -1.62 l3.56 0 l0 0.68 c0 0.5 -0.04 1.12 -0.14 1.84 c-0.1 0.7 -0.24 1.26 -0.42 1.66 c-0.36 0.76 -0.92 1.22 -1.68 1.4 s-1.5 0.26 -2.24 0.26 z M14.66 8.96 c1.54 0 2.9 0.26 3.48 1.6 c0.56 1.28 0.66 2.86 0.66 4.2 c0 0.64 -0.02 1.36 -0.08 2.14 c-0.04 0.78 -0.24 1.46 -0.58 2.06 c-0.32 0.56 -0.82 0.9 -1.48 1.04 c-0.66 0.12 -1.32 0.18 -2 0.18 s-1.34 -0.06 -2 -0.18 c-0.66 -0.14 -1.14 -0.48 -1.46 -1.04 c-0.34 -0.6 -0.54 -1.28 -0.6 -2.06 c-0.04 -0.78 -0.06 -1.5 -0.06 -2.14 c0 -1.34 0.1 -2.92 0.66 -4.2 c0.56 -1.34 1.92 -1.6 3.46 -1.6 z M14.66 17.88 c0.42 0 0.68 -0.14 0.74 -0.4 c0.06 -0.28 0.1 -0.56 0.1 -0.84 c0 -0.86 0 -1.6 0.02 -2.18 c0.02 -0.6 0 -1.34 -0.02 -2.22 c-0.02 -0.64 -0.3 -0.96 -0.84 -0.96 s-0.8 0.32 -0.82 0.96 c-0.04 0.88 -0.06 1.62 -0.04 2.22 c0.02 0.58 0.04 1.32 0.04 2.18 c0 0.28 0.02 0.56 0.08 0.84 c0.06 0.26 0.32 0.4 0.74 0.4 z M19.979999999999997 20 l0 -14.74 l3.24 0 l0 14.74 l-3.24 0 z M24.659999999999997 20 l0 -14.74 l3.24 0 l0 14.74 l-3.24 0 z M33.12 20.18 c-0.64 0 -1.3 -0.06 -1.96 -0.18 c-0.66 -0.14 -1.16 -0.48 -1.46 -1.04 c-0.34 -0.58 -0.56 -1.86 -0.56 -2.98 l0 -2.58 c0 -1.06 0.22 -2.2 0.48 -2.84 c0.26 -0.66 0.74 -1.1 1.44 -1.3 s1.44 -0.3 2.2 -0.3 c1.58 0 2.66 0.34 3.22 1 c0.58 0.66 0.86 1.42 0.86 2.3 l0 2.98 l-4.9 0 l0 1.34 c0 0.28 0.04 0.56 0.1 0.84 c0.06 0.26 0.3 0.4 0.72 0.4 c0.4 0 0.64 -0.14 0.7 -0.4 c0.06 -0.28 0.1 -0.56 0.1 -0.84 l0 -0.18 l3.26 0 c0 0.74 -0.16 1.98 -0.48 2.56 c-0.32 0.56 -0.84 0.9 -1.54 1.04 c-0.7 0.12 -1.42 0.18 -2.18 0.18 z M32.419999999999995 13.24 l1.66 0 c-0.02 -0.32 -0.02 -0.7 -0.02 -0.94 c-0.02 -0.64 -0.3 -0.96 -0.8 -0.96 c-0.54 0 -0.8 0.32 -0.82 0.96 c0 0.38 -0.02 0.68 -0.02 0.94 z M38.68 20.58 l2.92 0 c0.02 0.26 0.12 0.42 0.3 0.52 c0.1 0.06 0.28 0.1 0.58 0.1 c0.2 0 0.36 -0.04 0.46 -0.12 c0.26 -0.24 0.24 -0.56 0.24 -0.96 l0 -1.62 l-0.04 0 c-0.24 0.4 -0.54 0.7 -0.9 0.9 c-0.36 0.22 -0.82 0.32 -1.38 0.32 c-1.28 0 -1.9 -0.72 -2.2 -1.7 c-0.26 -0.96 -0.26 -2.2 -0.26 -3.18 l0 -2.48 c0 -0.8 0.04 -1.76 0.5 -2.48 s1.34 -0.92 2.16 -0.92 c0.5 0 0.94 0.08 1.32 0.22 c0.36 0.18 0.68 0.48 0.96 0.92 l0.04 0 l0.24 -0.94 l2.8 0 l0 11.12 c0 0.88 -0.14 1.92 -0.92 2.5 c-0.82 0.62 -2.08 0.66 -3.04 0.66 c-0.48 0 -1.02 -0.04 -1.64 -0.1 s-1.1 -0.28 -1.46 -0.64 c-0.54 -0.54 -0.66 -1.38 -0.68 -2.12 z M43.18 15.940000000000001 l0 -3.02 c0 -0.46 -0.04 -0.8 -0.14 -1.06 c-0.14 -0.26 -0.34 -0.4 -0.62 -0.4 s-0.48 0.14 -0.62 0.4 c-0.08 0.22 -0.12 0.56 -0.12 1.06 l0 3.02 c0 0.5 0.04 0.86 0.12 1.04 c0.12 0.28 0.32 0.42 0.62 0.42 c0.28 0 0.48 -0.14 0.62 -0.42 c0.1 -0.22 0.14 -0.56 0.14 -1.04 z M51.64 20.18 c-0.64 0 -1.3 -0.06 -1.96 -0.18 c-0.66 -0.14 -1.16 -0.48 -1.46 -1.04 c-0.34 -0.58 -0.56 -1.86 -0.56 -2.98 l0 -2.58 c0 -1.06 0.22 -2.2 0.48 -2.84 c0.26 -0.66 0.74 -1.1 1.44 -1.3 s1.44 -0.3 2.2 -0.3 c1.58 0 2.66 0.34 3.22 1 c0.58 0.66 0.86 1.42 0.86 2.3 l0 2.98 l-4.9 0 l0 1.34 c0 0.28 0.04 0.56 0.1 0.84 c0.06 0.26 0.3 0.4 0.72 0.4 c0.4 0 0.64 -0.14 0.7 -0.4 c0.06 -0.28 0.1 -0.56 0.1 -0.84 l0 -0.18 l3.26 0 c0 0.74 -0.16 1.98 -0.48 2.56 c-0.32 0.56 -0.84 0.9 -1.54 1.04 c-0.7 0.12 -1.42 0.18 -2.18 0.18 z M50.94 13.24 l1.66 0 c-0.02 -0.32 -0.02 -0.7 -0.02 -0.94 c-0.02 -0.64 -0.3 -0.96 -0.8 -0.96 c-0.54 0 -0.8 0.32 -0.82 0.96 c0 0.38 -0.02 0.68 -0.02 0.94 z M60.68 13.620000000000001 l0 3.78 l0.88 0 c0.42 0 0.72 -0.1 0.9 -0.32 c0.24 -0.32 0.24 -0.84 0.24 -1.24 l0 -0.64 c0 -0.5 -0.08 -0.88 -0.22 -1.18 c-0.14 -0.26 -0.44 -0.4 -0.9 -0.4 l-0.9 0 z M57.160000000000004 20 l0 -14.74 l5.1 0 c0.96 0 2.18 0.08 2.96 0.8 c0.72 0.72 0.82 1.82 0.82 2.76 c0 1.02 -0.16 1.82 -0.46 2.36 c-0.3 0.56 -0.88 0.92 -1.7 1.1 l0 0.04 c0.86 0.1 1.5 0.46 1.88 1.04 c0.38 0.62 0.56 1.42 0.56 2.4 c0 1.52 -0.28 2.6 -0.86 3.24 c-0.58 0.66 -1.5 1 -2.8 1 l-5.5 0 z M61.44 7.880000000000001 l-0.76 0 l0 3.3 l0.74 0 c0.46 0 0.78 -0.12 0.92 -0.34 s0.22 -0.58 0.22 -1.06 l0 -0.52 c0 -0.5 -0.06 -0.84 -0.2 -1.06 c-0.16 -0.22 -0.46 -0.32 -0.92 -0.32 z M70.56 9.16 l0 7.56 c0 0.26 0.06 0.48 0.16 0.64 s0.3 0.24 0.6 0.24 s0.52 -0.1 0.62 -0.28 c0.1 -0.16 0.14 -0.36 0.14 -0.6 l0 -7.56 l3.24 0 l0 10.84 l-2.88 0 l-0.32 -1.24 l-0.04 0 c-0.28 0.54 -0.6 0.9 -0.94 1.1 c-0.42 0.22 -0.88 0.32 -1.4 0.32 c-0.78 0 -1.36 -0.2 -1.78 -0.6 c-0.42 -0.42 -0.64 -1.06 -0.64 -1.88 l0 -8.54 l3.24 0 z M76.64 16.8 l0 -2.96 c0 -0.96 0 -2.2 0.26 -3.18 c0.3 -0.96 0.88 -1.7 2.16 -1.7 c0.56 0 1.02 0.1 1.38 0.32 c0.36 0.2 0.66 0.5 0.9 0.9 l0.04 0 l0 -4.92 l3.24 0 l0 14.74 l-2.8 0 l-0.24 -0.94 l-0.04 0 c-0.28 0.46 -0.6 0.76 -0.96 0.9 c-0.38 0.14 -0.82 0.22 -1.32 0.22 c-0.82 0 -1.66 -0.18 -2.12 -0.92 c-0.46 -0.7 -0.5 -1.64 -0.5 -2.46 z M81.38000000000001 16.240000000000002 l0 -3.3 c0 -0.46 -0.04 -0.8 -0.14 -1.06 c-0.14 -0.26 -0.34 -0.4 -0.62 -0.4 c-0.3 0 -0.5 0.14 -0.62 0.4 c-0.08 0.22 -0.12 0.56 -0.12 1.06 l0 3.3 c0 0.5 0.04 0.86 0.12 1.04 c0.12 0.28 0.32 0.42 0.62 0.42 c0.28 0 0.48 -0.14 0.62 -0.42 c0.1 -0.22 0.14 -0.56 0.14 -1.04 z M85.94 16.8 l0 -2.96 c0 -0.96 0 -2.2 0.26 -3.18 c0.3 -0.96 0.88 -1.7 2.16 -1.7 c0.56 0 1.02 0.1 1.38 0.32 c0.36 0.2 0.66 0.5 0.9 0.9 l0.04 0 l0 -4.92 l3.24 0 l0 14.74 l-2.8 0 l-0.24 -0.94 l-0.04 0 c-0.28 0.46 -0.6 0.76 -0.96 0.9 c-0.38 0.14 -0.82 0.22 -1.32 0.22 c-0.82 0 -1.66 -0.18 -2.12 -0.92 c-0.46 -0.7 -0.5 -1.64 -0.5 -2.46 z M90.68 16.240000000000002 l0 -3.3 c0 -0.46 -0.04 -0.8 -0.14 -1.06 c-0.14 -0.26 -0.34 -0.4 -0.62 -0.4 c-0.3 0 -0.5 0.14 -0.62 0.4 c-0.08 0.22 -0.12 0.56 -0.12 1.06 l0 3.3 c0 0.5 0.04 0.86 0.12 1.04 c0.12 0.28 0.32 0.42 0.62 0.42 c0.28 0 0.48 -0.14 0.62 -0.42 c0.1 -0.22 0.14 -0.56 0.14 -1.04 z M97.72 19.6 l-1.2 0 l-1.88 -10.44 l3.28 0 l0.9 8.18 l0.04 0 l0.9 -8.18 l3.24 0 c-0.7 3.78 -1.34 7.58 -2.04 11.34 c-0.16 0.86 -0.44 1.8 -1.14 2.36 c-0.7 0.48 -1.62 0.58 -2.42 0.58 c-0.54 0 -1.02 -0.06 -1.48 -0.2 l0 -2.2 c0.3 0.06 0.58 0.1 0.84 0.1 c0.3 0 0.54 -0.08 0.7 -0.24 c0.14 -0.16 0.22 -0.4 0.24 -0.7 z"></path></g></svg>